<svg xmlns="http://www.w3.org/2000/svg" viewBox="0 0 1239 572" preserveAspectRatio="xMidYMid" width="1239" height="572" xmlns:xlink="http://www.w3.org/1999/xlink" style="shape-rendering:auto;display:block;background-position-x:0%;background-position-y:0%;background-size:auto;background-origin:padding-box;background-clip:border-box;background:scroll rgb(13, 13, 13) none  repeat;width:1239px;height:572px;;animation:none"><g><defs><g id="id1"><circle stroke-width="2" stroke="#dfdfd9" fill="#0d0d0d" r="10" cy="0" cx="0" style="fill:rgb(13, 13, 13);stroke:rgb(223, 223, 217);;animation:none"></circle>

  
<path stroke-width="2" stroke="#dfdfd9" fill="none" d="M-6.00 0.00 A6 6 0 0 1 -1.17 -5.88" style="fill:none;stroke:rgb(223, 223, 217);;animation:none"></path></g>
<g id="id2"><circle stroke-width="2" stroke="#dfdfd9" fill="#0d0d0d" r="20" cy="0" cx="0" style="fill:rgb(13, 13, 13);stroke:rgb(223, 223, 217);;animation:none"></circle></g>
<g id="id3"><circle stroke-width="2" stroke="#dfdfd9" fill="#0d0d0d" r="30" cy="0" cx="0" style="fill:rgb(13, 13, 13);stroke:rgb(223, 223, 217);;animation:none"></circle>

  
<path stroke-width="2" stroke="#dfdfd9" fill="none" d="M-20.91 -9.75 A23.071796769724493 23.071796769724493 0 0 1 -3.51 -22.80" style="fill:none;stroke:rgb(223, 223, 217);;animation:none"></path></g>
<g id="id4"><circle stroke-width="2" stroke="#dfdfd9" fill="#0d0d0d" r="40" cy="0" cx="0" style="fill:rgb(13, 13, 13);stroke:rgb(223, 223, 217);;animation:none"></circle>

  
<path stroke-width="2" stroke="#dfdfd9" fill="none" d="M-25.39 -19.48 A32 32 0 0 1 -4.18 -31.73" style="fill:none;stroke:rgb(223, 223, 217);;animation:none"></path></g></defs>
<g transform="matrix(1,0,0,1,857.2000122070312,150.05682373046875)" style="transform:matrix(1, 0, 0, 1, 857.2, 150.057);;animation:none"><use href="#id1"></use></g>
<g transform="matrix(1,0,0,1,1029,74.75198364257812)" style="transform:matrix(1, 0, 0, 1, 1029, 74.752);;animation:none"><use href="#id1"></use></g>
<g transform="matrix(1,0,0,1,1033.5999755859375,321.447998046875)" style="transform:matrix(1, 0, 0, 1, 1033.6, 321.448);;animation:none"><use href="#id1"></use></g>
<g transform="matrix(1,0,0,1,289.29998779296875,60.08197021484375)" style="transform:matrix(1, 0, 0, 1, 289.3, 60.082);;animation:none"><use href="#id3"></use></g>
<g transform="matrix(1,0,0,1,51.79999923706055,365.6499938964844)" style="transform:matrix(1, 0, 0, 1, 51.8, 365.65);;animation:none"><use href="#id1"></use></g>
<g transform="matrix(1,0,0,1,317.29998779296875,149.97799682617188)" style="transform:matrix(1, 0, 0, 1, 317.3, 149.978);;animation:none"><use href="#id1"></use></g>
<g transform="matrix(1,0,0,1,330.8999938964844,566.3079833984375)" style="transform:matrix(1, 0, 0, 1, 330.9, 566.308);;animation:none"><use href="#id1"></use></g>
<g transform="matrix(1,0,0,1,1034.699951171875,52.1600341796875)" style="transform:matrix(1, 0, 0, 1, 1034.7, 52.16);;animation:none"><use href="#id1"></use></g>
<g transform="matrix(1,0,0,1,981.0999755859375,271.1000061035156)" style="transform:matrix(1, 0, 0, 1, 981.1, 271.1);;animation:none"><use href="#id4"></use></g>
<g transform="matrix(1,0,0,1,507.70001220703125,120.57598876953125)" style="transform:matrix(1, 0, 0, 1, 507.7, 120.576);;animation:none"><use href="#id1"></use></g>
<g transform="matrix(1,0,0,1,788.4000244140625,483.4059753417969)" style="transform:matrix(1, 0, 0, 1, 788.4, 483.406);;animation:none"><use href="#id3"></use></g>
<g transform="matrix(1,0,0,1,1050.5,300.5350036621094)" style="transform:matrix(1, 0, 0, 1, 1050.5, 300.535);;animation:none"><use href="#id4"></use></g>
<g transform="matrix(1,0,0,1,987.0999755859375,487.56402587890625)" style="transform:matrix(1, 0, 0, 1, 987.1, 487.564);;animation:none"><use href="#id4"></use></g>
<g transform="matrix(1,0,0,1,501.5,587.5460205078125)" style="transform:matrix(1, 0, 0, 1, 501.5, 587.546);;animation:none"><use href="#id1"></use></g>
<g transform="matrix(1,0,0,1,1013.7000122070312,298.2080078125)" style="transform:matrix(1, 0, 0, 1, 1013.7, 298.208);;animation:none"><use href="#id1"></use></g>
<g transform="matrix(1,0,0,1,104.30000305175781,13.57000732421875)" style="transform:matrix(1, 0, 0, 1, 104.3, 13.57);;animation:none"><use href="#id3"></use></g>
<g transform="matrix(1,0,0,1,1159.5,472.3599853515625)" style="transform:matrix(1, 0, 0, 1, 1159.5, 472.36);;animation:none"><use href="#id2"></use></g>
<g transform="matrix(1,0,0,1,99.80000305175781,292.1600036621094)" style="transform:matrix(1, 0, 0, 1, 99.8, 292.16);;animation:none"><use href="#id3"></use></g>
<g transform="matrix(1,0,0,1,1003.5,273.8800048828125)" style="transform:matrix(1, 0, 0, 1, 1003.5, 273.88);;animation:none"><use href="#id1"></use></g>
<g transform="matrix(1,0,0,1,537.7000122070312,21.03399658203125)" style="transform:matrix(1, 0, 0, 1, 537.7, 21.034);;animation:none"><use href="#id1"></use></g>
<g transform="matrix(1,0,0,1,1068,482.99200439453125)" style="transform:matrix(1, 0, 0, 1, 1068, 482.992);;animation:none"><use href="#id1"></use></g>
<g transform="matrix(1,0,0,1,761.7999877929688,328.37799072265625)" style="transform:matrix(1, 0, 0, 1, 761.8, 328.378);;animation:none"><use href="#id2"></use></g>
<g transform="matrix(1,0,0,1,269.8999938964844,4.20404052734375)" style="transform:matrix(1, 0, 0, 1, 269.9, 4.20404);;animation:none"><use href="#id1"></use></g>
<g transform="matrix(1,0,0,1,1201.9000244140625,505.28656005859375)" style="transform:matrix(1, 0, 0, 1, 1201.9, 505.287);;animation:none"><use href="#id3"></use></g>
<g transform="matrix(1,0,0,1,1115.9000244140625,243.10894775390625)" style="transform:matrix(1, 0, 0, 1, 1115.9, 243.109);;animation:none"><use href="#id1"></use></g>
<g transform="matrix(1,0,0,1,983.9000244140625,384.66864013671875)" style="transform:matrix(1, 0, 0, 1, 983.9, 384.669);;animation:none"><use href="#id2"></use></g>
<g transform="matrix(1,0,0,1,816.7000122070312,205.74478149414062)" style="transform:matrix(1, 0, 0, 1, 816.7, 205.745);;animation:none"><use href="#id2"></use></g>
<g transform="matrix(1,0,0,1,167.39999389648438,509.2149353027344)" style="transform:matrix(1, 0, 0, 1, 167.4, 509.215);;animation:none"><use href="#id1"></use></g>
<g transform="matrix(1,0,0,1,4.800000190734863,137.61642456054688)" style="transform:matrix(1, 0, 0, 1, 4.8, 137.616);;animation:none"><use href="#id1"></use></g>
<g transform="matrix(1,0,0,1,265.1000061035156,469.1253662109375)" style="transform:matrix(1, 0, 0, 1, 265.1, 469.125);;animation:none"><use href="#id2"></use></g>
<g transform="matrix(1,0,0,1,244.8000030517578,129.81643676757812)" style="transform:matrix(1, 0, 0, 1, 244.8, 129.816);;animation:none"><use href="#id1"></use></g>
<g transform="matrix(1,0,0,1,77.19999694824219,128.58511352539062)" style="transform:matrix(1, 0, 0, 1, 77.2, 128.585);;animation:none"><use href="#id2"></use></g>
<g transform="matrix(1,0,0,1,705.5999755859375,411.85223388671875)" style="transform:matrix(1, 0, 0, 1, 705.6, 411.852);;animation:none"><use href="#id1"></use></g>
<g transform="matrix(1,0,0,1,586.0999755859375,150.00299072265625)" style="transform:matrix(1, 0, 0, 1, 586.1, 150.003);;animation:none"><use href="#id1"></use></g>
<g transform="matrix(1,0,0,1,742.7000122070312,552.6239013671875)" style="transform:matrix(1, 0, 0, 1, 742.7, 552.624);;animation:none"><use href="#id1"></use></g>
<g></g></g><!-- [ldio] generated by https://loading.io --></svg>